<svg id="Layer_1" height="512" viewBox="0 0 512 512" width="512" xmlns="http://www.w3.org/2000/svg" data-name="Layer 1"><path d="m211.58 470.07h88.84a34.613 34.613 0 0 1 -34.41 30.93h-20.02a34.613 34.613 0 0 1 -34.41-30.93z" fill="#6d6d93"/><path d="m309.93 418.01h-107.86a12.208 12.208 0 0 0 -12.21 12.21v1.61a12.2 12.2 0 0 0 12.21 12.21h107.86a12.2 12.2 0 0 0 12.21-12.21v-1.61a12.208 12.208 0 0 0 -12.21-12.21z" fill="#4a5160"/><path d="m378.88 223.4c-1.7-65.94-55.77-119.07-121.73-119.67a122.919 122.919 0 0 0 -84.28 213.46 85.544 85.544 0 0 1 20.61 29.04 87.911 87.911 0 0 1 7.21 34.92v10.83h110.62v-10.93a88.189 88.189 0 0 1 28.47-64.46 122.645 122.645 0 0 0 39.1-93.19z" fill="#f2cf7d"/><path d="m304.6 444.04h-97.2a12.208 12.208 0 0 0 -12.21 12.21v1.61a12.2 12.2 0 0 0 12.21 12.21h97.2a12.2 12.2 0 0 0 12.21-12.21v-1.61a12.208 12.208 0 0 0 -12.21-12.21z" fill="#6d7486"/><path d="m315.26 391.98h-118.52a12.208 12.208 0 0 0 -12.21 12.21v1.61a12.208 12.208 0 0 0 12.21 12.21h118.52a12.208 12.208 0 0 0 12.21-12.21v-1.61a12.208 12.208 0 0 0 -12.21-12.21z" fill="#6d7486"/><path d="m231 381.15a88.048 88.048 0 0 0 -7.365-34.92 85.766 85.766 0 0 0 -20.688-29.04 122.9 122.9 0 0 1 68.03-212.548 122.919 122.919 0 0 0 -98.1 212.548 85.983 85.983 0 0 1 20.764 29.04 88.047 88.047 0 0 1 7.359 34.92v10.85h30z" fill="#ba9c61"/><path d="m241.58 470h-30a34.346 34.346 0 0 0 34.41 31h20.02a34.7 34.7 0 0 0 4.99-.4 34.563 34.563 0 0 1 -29.42-30.6z" fill="#5d5d75"/><path d="m220 431.83v-1.61a12.1 12.1 0 0 1 12.07-12.22h-30a12.1 12.1 0 0 0 -12.07 12.22v1.61a12.049 12.049 0 0 0 12.07 12.17h30a12.049 12.049 0 0 1 -12.07-12.17z" fill="#383e47"/><path d="m225 457.86v-1.61a12.406 12.406 0 0 1 12.4-12.25h-30a12.406 12.406 0 0 0 -12.4 12.25v1.61a12.306 12.306 0 0 0 12.4 12.14h30a12.306 12.306 0 0 1 -12.4-12.14z" fill="#4a5160"/><path d="m215 405.8v-1.61c0-6.74 4.99-12.19 11.74-12.19h-30c-6.75 0-11.74 5.45-11.74 12.19v1.61c0 6.74 4.99 12.2 11.74 12.2h30c-6.75 0-11.74-5.46-11.74-12.2z" fill="#4a5160"/><g fill="#284268"><path d="m256 63.8a6 6 0 0 0 6-6v-46.8a6 6 0 0 0 -12 0v46.8a6 6 0 0 0 6 6z"/><path d="m478.986 227.985h-46.8a6 6 0 1 0 0 12h46.8a6 6 0 0 0 0-12z"/><path d="m79.811 227.985h-46.8a6 6 0 1 0 0 12h46.8a6 6 0 1 0 0-12z"/><path d="m424.771 65.215a6 6 0 0 0 -8.486 0l-36.516 36.516a6 6 0 0 0 8.485 8.486l36.517-36.517a6 6 0 0 0 0-8.485z"/><path d="m132.232 110.217a6 6 0 0 0 0-8.486l-36.517-36.516a6 6 0 1 0 -8.485 8.485l36.516 36.516a6 6 0 0 0 8.486 0z"/><path d="m152.082 226.645a6 6 0 0 0 12 0c0-1.35.03-2.716.088-4.061a6 6 0 1 0 -11.989-.515c-.066 1.515-.099 3.055-.099 4.576z"/><path d="m159.576 208.412a6 6 0 0 0 7.282-4.357 92.124 92.124 0 0 1 75.18-68.289 6 6 0 0 0 -1.793-11.865 104.13 104.13 0 0 0 -85.026 77.23 6 6 0 0 0 4.357 7.281z"/><path d="m346.317 134.784a128.778 128.778 0 0 0 -169.054-10.242 6.015 6.015 0 0 0 -.582 9.008 6.014 6.014 0 0 0 7.946.471 116.925 116.925 0 0 1 151.059 178.179 94.683 94.683 0 0 0 -30.373 68.946v4.833h-31.25l24.9-110.563c2.575-3.72 4.1-5.271 6.6-5.271a6 6 0 1 0 0-12c-9.465 0-14.119 6.925-17.518 11.981-3.187 4.744-4.764 6.675-7.558 6.675s-4.371-1.931-7.559-6.675c-3.4-5.056-8.052-11.981-17.518-11.981s-14.11 6.925-17.51 11.983c-3.185 4.742-4.76 6.673-7.549 6.673s-4.367-1.931-7.553-6.674c-3.4-5.057-8.05-11.982-17.515-11.982a6 6 0 0 0 0 12c2.542 0 4.08 1.609 6.739 5.476l25.85 110.358h-31.185v-4.833a92.928 92.928 0 0 0 -29.754-68.374 117.086 117.086 0 0 1 -24.375-140.738 6.014 6.014 0 0 0 -1.04-7.079 6 6 0 0 0 -9.536 1.4 129.1 129.1 0 0 0 26.835 155.257 80.9 80.9 0 0 1 25.871 59.535v4.953a18.23 18.23 0 0 0 -16.161 18.087v1.61a18.2 18.2 0 0 0 7.961 15.041 18.068 18.068 0 0 0 -2.631 9.38v1.611a18.2 18.2 0 0 0 7.961 15.04 18.07 18.07 0 0 0 -2.632 9.381v1.61a18.219 18.219 0 0 0 17.361 18.168 40.526 40.526 0 0 0 39.447 30.972h20.012a40.526 40.526 0 0 0 39.448-30.969 18.218 18.218 0 0 0 17.361-18.168v-1.61a18.07 18.07 0 0 0 -2.632-9.381 18.2 18.2 0 0 0 7.962-15.04v-1.611a18.066 18.066 0 0 0 -2.632-9.38 18.2 18.2 0 0 0 7.961-15.041v-1.61a18.23 18.23 0 0 0 -16.161-18.09v-5.05a82.6 82.6 0 0 1 26.552-60.073 128.755 128.755 0 0 0 2.452-186.2zm-118.94 153.76a17.713 17.713 0 0 0 2.977.257c9.463 0 14.114-6.926 17.511-11.983 3.184-4.742 4.759-6.673 7.548-6.673s4.371 1.931 7.559 6.675c3.4 5.056 8.052 11.981 17.518 11.981a17.649 17.649 0 0 0 3.225-.292l-21.953 97.47h-11.562zm38.629 206.456h-20.012a28.554 28.554 0 0 1 -26.929-18.926h73.87a28.557 28.557 0 0 1 -26.929 18.926zm44.809-37.137a6.218 6.218 0 0 1 -6.211 6.211h-97.204a6.218 6.218 0 0 1 -6.211-6.211v-1.61a6.218 6.218 0 0 1 6.211-6.211h97.2a6.218 6.218 0 0 1 6.211 6.211zm5.33-26.031a6.218 6.218 0 0 1 -6.211 6.21h-107.868a6.217 6.217 0 0 1 -6.21-6.21v-1.611a6.217 6.217 0 0 1 6.21-6.21h107.868a6.218 6.218 0 0 1 6.211 6.21zm5.329-27.642v1.61a6.218 6.218 0 0 1 -6.21 6.211h-118.528a6.218 6.218 0 0 1 -6.21-6.211v-1.61a6.218 6.218 0 0 1 6.21-6.211h118.528a6.218 6.218 0 0 1 6.21 6.211z"/></g></svg>